{
 "asset": {
  "version": "2.0",
  "generator": "boardui samples"
 },
 "scene": 0,
 "scenes": [
  {
   "nodes": [
    0
   ]
  }
 ],
 "nodes": [
  {
   "name": "box",
   "mesh": 0
  }
 ],
 "meshes": [
  {
   "primitives": [
    {
     "attributes": {
      "POSITION": 0
     },
     "indices": 1,
     "material": 0
    }
   ]
  }
 ],
 "materials": [
  {
   "name": "ceramic",
   "pbrMetallicRoughness": {
    "baseColorFactor": [
     0.55,
     0.45,
     0.3,
     1
    ],
    "metallicFactor": 0
   }
  }
 ],
 "accessors": [
  {
   "bufferView": 0,
   "componentType": 5126,
   "count": 8,
   "type": "VEC3",
   "min": [
    -0.0008,
    0,
    -0.0004
   ],
   "max": [
    0.0008,
    0.0005,
    0.0004
   ]
  },
  {
   "bufferView": 1,
   "componentType": 5123,
   "count": 36,
   "type": "SCALAR"
  }
 ],
 "bufferViews": [
  {
   "buffer": 0,
   "byteLength": 96,
   "target": 34962
  },
  {
   "buffer": 0,
   "byteOffset": 96,
   "byteLength": 72,
   "target": 34963
  }
 ],
 "buffers": [
  {
   "byteLength": 168,
   "uri": "data:application/octet-stream;base64,"
  }
 ]
}
